<svg width="212" height="60" viewBox="0 0 74 21" fill="none" xmlns="http://www.w3.org/2000/svg">
  <path
    fill-rule="evenodd"
    clip-rule="evenodd"
    d="M28.9783 5.14769V5.12721C28.7134 5.14079 28.4381 5.15438 28.1524 5.16796C28.0028 5.18147 27.8567 5.20181 27.7139 5.22898C27.5644 5.26966 27.4283 5.31034 27.3058 5.35103C27.171 5.3806 27.0473 5.4475 26.9489 5.54407C26.5342 5.86966 26.1161 6.20536 25.6946 6.55119L25.6743 5.16775H23.1867V15.8506H25.8785C25.8785 13.7616 25.8989 11.6794 25.9397 9.60399C25.9395 9.44263 25.9601 9.28191 26.0009 9.12578C26.0526 8.90901 26.1515 8.7063 26.2908 8.53219C26.43 8.35808 26.6061 8.21687 26.8064 8.11866C27.4745 7.7734 28.2382 7.65891 28.9783 7.79307V7.72154H28.9984V16.7557L5.55685 20.5709V9.8885H10.6449L11.4097 7.51842H5.55685V4.46627H12.6536L13.7243 2.07548H2.69159V20.5913L0 18.119V2.53298L2.3551 0L28.9984 1.95301V5.14769H28.978H28.9783ZM20.7701 6.67366C19.7641 5.62911 18.5507 5.10687 17.1299 5.10694C16.4482 5.09652 15.7721 5.2308 15.1463 5.50089C14.5204 5.77099 13.9592 6.17073 13.4997 6.67366C13.0103 7.17577 12.625 7.76949 12.366 8.42073C12.107 9.07196 11.9795 9.76787 11.9906 10.4685C11.9906 11.9538 12.4937 13.2187 13.4997 14.2632C14.4923 15.3213 15.7023 15.8504 17.1299 15.8504C18.5506 15.8504 19.764 15.3213 20.7701 14.2632C21.7625 13.2188 22.2587 11.9539 22.2587 10.4685C22.2825 9.05712 21.7475 7.69341 20.7701 6.67366ZM17.1605 13.5815C16.4807 13.5815 15.9063 13.2797 15.4372 12.6761C14.9498 12.0447 14.6943 11.2654 14.7134 10.4685C14.7134 9.61382 14.9547 8.88456 15.4372 8.2807C15.9062 7.67699 16.4807 7.37518 17.1605 7.37525C17.8336 7.37525 18.4046 7.67707 18.8736 8.2807C19.3425 8.88434 19.577 9.6136 19.577 10.4685C19.5966 11.2622 19.3489 12.0396 18.8736 12.6761C18.4044 13.2797 17.8334 13.5815 17.1605 13.5815Z"
    fill="url(#paint0_linear_ft)"
  />
  <path
    fill-rule="evenodd"
    clip-rule="evenodd"
    d="M44.0738 5.17423H43.7075C43.1545 5.17006 42.6077 5.29009 42.1075 5.52544C41.6073 5.76079 41.1665 6.10543 40.8176 6.53386C40.8112 6.55807 40.7969 6.57946 40.7769 6.59467V5.21455H38.2839V15.8684H40.9805C40.9805 13.785 40.994 11.7083 41.0212 9.63846C41.0283 8.9822 41.3065 8.50868 41.8556 8.21791C42.5217 7.81972 43.3121 7.68235 44.0738 7.83237V5.17423ZM30.8558 2.1714V5.17423H29.1057V7.79194H30.8564C30.87 9.28691 30.8768 10.6093 30.8768 11.7592C30.8631 12.896 31.1817 13.843 31.8326 14.6002C32.36 15.2381 33.1082 15.6546 33.9289 15.767H37.1443V13.5448H35.5773C35.1432 13.5448 34.8142 13.5381 34.5903 13.5245H34.4275C34.3031 13.5027 34.1829 13.4616 34.0713 13.4027C33.9384 13.3405 33.8204 13.2506 33.7254 13.1389C33.6033 13.0374 33.5151 12.6248 33.4607 11.9011V7.79172H37.1446V5.17423H33.4811V2.1714H30.8564H30.8558ZM49.671 7.64083C50.3968 7.78296 50.7325 8.18881 50.6783 8.85837C50.3323 9.35226 49.8032 9.58566 49.0909 9.55856C47.9297 9.61322 46.7958 9.92881 45.7737 10.4818C45.0139 10.908 44.573 11.5811 44.4509 12.501C44.3918 12.894 44.4243 13.2954 44.5461 13.6738C44.6679 14.0522 44.8756 14.3974 45.153 14.6824C46.0077 15.5686 47.066 15.9439 48.3278 15.8085C49.3182 15.7679 50.122 15.433 50.7394 14.804L50.9632 15.4838L53.446 15.6056C53.4189 13.2313 53.3749 10.8604 53.3138 8.49288C53.2954 7.83901 53.0509 7.21165 52.6218 6.71736C51.7399 5.79742 50.5969 5.35096 49.1927 5.37799C47.6528 5.33745 46.4148 5.87521 45.4786 6.99125C45.3018 7.23554 45.1645 7.506 45.0716 7.79279C44.9508 8.15227 44.8656 8.52272 44.8172 8.8988H47.3611C47.6595 7.73528 48.4295 7.31588 49.671 7.64061V7.64083ZM49.8948 13.4038C49.1079 14.0194 48.2769 14.1276 47.4018 13.7285C46.8386 12.7883 47.0659 12.0916 48.0836 11.6383C48.6073 11.397 49.162 11.2297 49.732 11.1412C50.0667 11.1026 50.3821 10.9647 50.6376 10.7454L50.6783 11.1817C50.8411 12.1152 50.5798 12.8559 49.8942 13.4038H49.8948ZM54.2494 9.55835C54.1951 9.87678 54.1678 10.1992 54.168 10.5223C54.1521 11.4527 54.2966 12.3789 54.5953 13.2604C55.3551 14.8905 56.6475 15.7663 58.4725 15.8879C59.6868 15.9014 60.6026 15.394 61.2199 14.3659L61.3421 15.6038H63.8553V2.17065H61.2196V6.92927C60.107 5.47504 58.6824 5.06244 56.9459 5.69146C56.443 5.84975 55.9847 6.12429 55.6081 6.49277C55.2314 6.86126 54.9472 7.31328 54.7785 7.8121C54.5557 8.37877 54.3788 8.96236 54.2494 9.55727V9.55835ZM57.5056 8.49181C57.9329 7.91012 58.462 7.61928 59.093 7.61928C59.7239 7.61928 60.253 7.91012 60.6803 8.49181C61.1212 9.09387 61.3417 9.81766 61.3417 10.6632C61.3417 11.5155 61.1212 12.2427 60.6803 12.8447C60.2529 13.4332 59.7238 13.7274 59.093 13.7274C58.4622 13.7274 57.933 13.4332 57.5056 12.8447C57.0646 12.2427 56.8441 11.5155 56.8441 10.6632C56.8441 9.81766 57.0646 9.09387 57.5056 8.49181ZM69.8586 5.40737C68.2644 5.25194 66.8908 5.695 65.7376 6.73655C64.3333 8.79284 64.1061 10.9743 65.0558 13.281C65.673 14.7758 66.7652 15.618 68.3323 15.8074C69.5126 16.0171 70.6048 15.8683 71.6088 15.361C72.7417 14.8198 73.4912 13.9202 73.8576 12.6621H71.1403C70.5773 13.7037 69.736 13.9979 68.6164 13.5448C67.6598 13.173 67.1511 12.4323 67.09 11.3227H73.9788C74.1055 9.74605 73.6614 8.17633 72.7273 6.89892C72.0217 5.95861 71.0652 5.46143 69.8577 5.40737H69.8586ZM69.237 7.47718C70.2546 7.59872 70.8956 8.18045 71.1603 9.22235C71.2028 9.3588 71.2368 9.49778 71.262 9.63846H67.1824C67.3317 8.56967 67.9016 7.86279 68.892 7.51782C68.9869 7.50431 69.1022 7.49076 69.2379 7.47718H69.237Z"
    fill="#111827"
  />
  <defs>
    <linearGradient id="paint0_linear_ft" x1="3.23707e-08" y1="10.3479" x2="26.206" y2="10.3479" gradientUnits="userSpaceOnUse">
      <stop stop-color="#2091FF" />
      <stop offset="1" stop-color="#2FB9FF" />
    </linearGradient>
  </defs>
</svg>
